<svg width="41" height="41" viewBox="0 0 41 41" fill="none" xmlns="http://www.w3.org/2000/svg">
<g clip-path="url(#clip0)">
<path d="M4.48571 24.0067C3.35966 24.0066 2.27968 23.5597 1.48279 22.7641C0.685909 21.9685 0.23723 20.8892 0.235232 19.7632C0.232717 17.4245 2.13383 15.5177 4.47628 15.5127C6.81622 15.5102 8.72676 17.4176 8.72802 19.7563C8.72819 20.8822 8.28155 21.9622 7.48616 22.7591C6.69077 23.556 5.61165 24.0047 4.48571 24.0067V24.0067ZM4.47628 16.5299C2.69713 16.5286 1.24929 17.9815 1.25054 19.7632C1.25071 20.1877 1.33454 20.6081 1.49724 21.0003C1.65994 21.3924 1.89833 21.7487 2.19878 22.0486C2.49922 22.3486 2.85584 22.5865 3.24824 22.7485C3.64065 22.9106 4.06115 22.9938 4.48571 22.9933C5.34287 22.9912 6.1642 22.6492 6.7696 22.0424C7.375 21.4355 7.71506 20.6134 7.71522 19.7563C7.71289 18.8991 7.3705 18.0779 6.76322 17.473C6.15595 16.8681 5.33343 16.5289 4.47628 16.5299" fill="black"/>
<path d="M12.5993 24.0002C10.2569 24.0027 8.34883 22.1016 8.34631 19.7592C8.34506 17.4167 10.2512 15.5087 12.5905 15.5037C14.933 15.5037 16.8372 17.4086 16.8397 19.7491C16.8401 20.8748 16.3938 21.9547 15.5988 22.7517C14.8038 23.5487 13.725 23.9977 12.5993 24.0002V24.0002ZM12.5918 16.5196C11.7345 16.5219 10.9132 16.8639 10.3076 17.4707C9.70206 18.0774 9.36166 18.8994 9.361 19.7567C9.36349 20.6138 9.70556 21.435 10.3123 22.0404C10.919 22.6458 11.7409 22.9861 12.5981 22.9868C13.4549 22.9846 14.2759 22.6428 14.881 22.0362C15.4862 21.4296 15.8261 20.6078 15.8263 19.751C15.825 18.8938 15.4837 18.0722 14.8773 17.4664C14.2709 16.8606 13.4489 16.5201 12.5918 16.5196" fill="black"/>
<path d="M15.0669 21.8307C15.656 22.4989 15.678 23.039 15.6793 23.999C15.6788 25.0076 15.2779 25.9747 14.5647 26.6879C13.8515 27.4011 12.8844 27.802 11.8758 27.8025C10.8679 27.8031 9.90104 27.4035 9.18778 26.6914C8.47452 25.9793 8.07328 25.0131 8.07228 24.0053C8.06976 23.0478 8.58653 21.7445 9.17309 21.0775L7.87361 20.8223C7.44674 21.5597 6.87716 23.0956 6.87842 24.0065C6.88345 26.7626 9.12531 29.0001 11.8814 28.9976C14.6363 28.9951 16.8756 26.7513 16.8731 23.9965C16.8699 23.1171 16.6346 22.2542 16.191 21.495L15.0682 21.8294" fill="black"/>
<path d="M8.90579 19.7558C8.90831 22.0989 7.0009 24.0057 4.66348 24.0082C2.32355 24.0119 0.416773 22.1096 0.411743 19.7671C0.411409 18.6408 0.858129 17.5604 1.65379 16.7632C2.44945 15.966 3.52899 15.5172 4.65531 15.5154C5.78087 15.5154 6.86047 15.9618 7.6573 16.7568C8.45413 17.5517 8.90313 18.6302 8.90579 19.7558V19.7558ZM7.89111 19.7596C7.88978 18.9025 7.54845 18.0809 6.94203 17.4752C6.33562 16.8695 5.51367 16.5291 4.65657 16.5288C3.79962 16.531 2.97849 16.8728 2.37313 17.4793C1.76776 18.0859 1.42755 18.9077 1.42706 19.7646C1.42872 20.6218 1.77035 21.4432 2.37698 22.0488C2.98361 22.6544 3.8057 22.9946 4.66285 22.9947C5.51947 22.9922 6.34019 22.6504 6.94526 22.044C7.55033 21.4376 7.89045 20.6162 7.89111 19.7596" fill="black"/>
<path d="M17.0164 19.7497C17.0215 22.0916 15.1178 23.9971 12.7754 24.0021C10.4342 24.0021 8.52616 22.1035 8.5249 19.7585C8.5249 18.6329 8.97142 17.5532 9.7665 16.7563C10.5616 15.9595 11.6403 15.5106 12.766 15.5081C13.8919 15.5074 14.9721 15.9538 15.7691 16.7491C16.5661 17.5445 17.0148 18.6238 17.0164 19.7497V19.7497ZM16.0043 19.7523C16.0028 18.8946 15.6609 18.0725 15.0537 17.4667C14.4465 16.861 13.6237 16.521 12.766 16.5215C10.9855 16.5227 9.53896 17.9756 9.53896 19.7585C9.54112 20.6157 9.88287 21.437 10.4894 22.0426C11.0958 22.6483 11.9176 22.9889 12.7748 22.9899C13.6318 22.9869 14.4527 22.6446 15.0579 22.0378C15.6632 21.4311 16.0034 20.6093 16.0043 19.7523" fill="black"/>
<path d="M15.24 17.6731C15.8278 17.003 15.8473 16.4604 15.846 15.5023C15.8435 14.4932 15.4411 13.5263 14.727 12.8134C14.0129 12.1004 13.0453 11.6996 12.0362 11.6988C9.9377 11.7026 8.23273 13.4107 8.23902 15.5086C8.24027 16.4654 8.75705 17.7674 9.3436 18.4363L8.04539 18.6916C7.61726 17.9567 7.04579 16.4202 7.04579 15.5086C7.0395 12.755 9.28011 10.5094 12.0375 10.5068C14.7898 10.5056 17.0355 12.7424 17.0392 15.4973C17.0401 16.3775 16.8063 17.242 16.3621 18.0019L15.2387 17.6706" fill="black"/>
<path d="M40.2877 19.6195C40.2877 20.5178 39.6716 21.2433 38.9121 21.2433L19.2283 21.2653C18.4695 21.2653 18.8674 20.5392 18.8687 19.6434C18.8674 18.745 18.4651 18.0207 19.2258 18.0207L38.9033 18C39.6628 17.9994 40.2801 18.723 40.2826 19.6195" fill="black"/>
<path d="M32.4675 19.6614L32.4801 28.092L34.3976 28.0857L34.3913 24.3136H36.1641V28.0857H38.0816L38.0753 19.6558L32.4675 19.6614Z" fill="black"/>
<path d="M19.5635 17.0201L19.5685 22.2652L16.2409 23.029L16.2346 16.2632L19.5635 17.0201ZM18.5532 21.4586L18.5481 17.8336L17.2474 17.5369L17.2512 21.7566L18.5532 21.4586" fill="black"/>
</g>
<defs>
<clipPath id="clip0">
<rect width="40.2353" height="40.2353" fill="white" transform="translate(0.235352 0.235352)"/>
</clipPath>
</defs>
</svg>
