<svg width="195" height="57" viewBox="0 0 195 57" fill="none" xmlns="http://www.w3.org/2000/svg">
<path d="M56.6887 41.5527C53.5401 43.1757 37.2292 49.8077 33.7567 51.5977C30.2842 53.3878 28.3551 53.371 25.612 52.0745C22.8689 50.778 5.5112 43.8441 2.38449 42.3662C0.821651 41.6274 0 41.0046 0 40.4153V34.5176C0 34.5176 22.5973 29.6527 26.2457 28.3586C29.894 27.0645 31.1593 27.021 34.2638 28.1425C37.3683 29.2641 55.9319 32.5794 59 33.6907L58.9986 39.5043C58.999 40.0874 58.2911 40.7271 56.6887 41.553V41.5527Z" fill="#115DA4"/>
<path d="M56.6881 35.7129C53.5396 37.3237 37.2291 43.9093 33.7566 45.6866C30.2842 47.4639 28.3552 47.4472 25.6121 46.16C22.8691 44.8727 5.51181 37.9875 2.38517 36.5207C-0.741465 35.054 -0.807018 34.0432 2.26447 32.8625L26.2461 23.746C29.894 22.4615 31.1596 22.4179 34.264 23.5315C37.3685 24.6451 53.5823 30.9847 56.6499 32.0881C59.7176 33.1915 59.8366 34.1018 56.6846 35.7133L56.6881 35.7129Z" fill="#2096D8"/>
<path d="M56.6887 31.6838C53.5401 33.3067 37.2292 39.9384 33.7567 41.7294C30.2842 43.5204 28.3551 43.5019 25.612 42.2051C22.8689 40.9084 5.5112 33.9752 2.38449 32.4973C0.821651 31.7585 0 31.1357 0 30.5472V24.6491C0 24.6491 22.5973 19.7847 26.2457 18.4903C29.894 17.1959 31.1593 17.1527 34.2638 18.2742C37.3683 19.3958 55.9319 22.7102 59 23.8218L58.9986 29.6362C58.999 30.2193 58.2911 30.8586 56.6887 31.6845V31.6838Z" fill="#115DA4"/>
<path d="M56.6881 25.8439C53.5396 27.4553 37.2291 34.04 33.7566 35.8183C30.2842 37.5966 28.3552 37.5782 25.6121 36.2906C22.8691 35.0031 5.51181 28.1187 2.38517 26.6517C-0.741465 25.1846 -0.807018 24.1746 2.26447 22.9932L26.2461 13.8777C29.894 12.5928 31.1596 12.5496 34.264 13.6631C37.3685 14.7767 53.5823 21.1159 56.6499 22.2195C59.7176 23.3232 59.8366 24.2332 56.6846 25.8446L56.6881 25.8439Z" fill="#2096D8"/>
<path d="M56.6887 21.8126C53.5401 23.4353 37.2292 30.0668 33.7567 31.8603C30.2842 33.6538 28.3551 33.6325 25.612 32.3359C22.8689 31.0393 5.5112 24.1068 2.38449 22.6294C0.821651 21.8908 0 21.268 0 20.6796V14.7792C0 14.7792 22.5973 9.91549 26.2457 8.62163C29.894 7.32777 31.1593 7.28423 34.2638 8.40559C37.3683 9.52696 55.9319 12.841 59 13.9524L58.9986 19.7657C58.999 20.3479 58.2911 20.9875 56.6887 21.8129V21.8126Z" fill="#115DA4"/>
<path d="M56.6881 15.9755C53.5396 17.587 37.2291 24.1724 33.7566 25.9501C30.2842 27.7277 28.3552 27.71 25.6121 26.4227C22.8691 25.1355 5.51181 18.2507 2.38517 16.7836C-0.741465 15.3165 -0.807018 14.3061 2.26447 13.1251L26.2461 4.00941C29.894 2.7242 31.1596 2.68129 34.264 3.79487C37.3685 4.90845 53.5823 11.2477 56.6499 12.3514C59.7176 13.4551 59.8366 14.3647 56.6846 15.9758L56.6881 15.9755Z" fill="#2096D8"/>
<path d="M51.0449 14.1895L43.0899 17.4737V10.8947L51.0449 14.1895Z" fill="#00387A"/>
<path d="M43.7528 10.8947V17.1351L42.8438 17.4737L34.4719 14.3586L43.7528 10.8947Z" fill="#1552AD"/>
<path fill-rule="evenodd" clip-rule="evenodd" d="M37.1236 9.25001C37.1236 10.8851 33.8588 12.2105 29.8315 12.2105C28.5739 12.2105 27.3907 12.0813 26.358 11.8538L15.761 16.4575C15.2615 16.6744 14.4257 16.6791 13.9123 16.4676C13.4084 16.2602 13.4084 15.9238 13.9123 15.7163L24.6037 11.314C23.3261 10.7807 22.5393 10.0527 22.5393 9.25001C22.5393 7.61496 25.8041 6.28949 29.8315 6.28949C33.8588 6.28949 37.1236 7.61496 37.1236 9.25001Z" fill="white"/>
<path fill-rule="evenodd" clip-rule="evenodd" d="M171.5 5C158.516 5 148 15.4785 148 28.4157C148 38.7771 154.727 47.5287 164.068 50.6313C165.243 50.8362 165.684 50.1337 165.684 49.5191C165.684 48.963 165.654 47.119 165.654 45.1579C159.75 46.2409 158.223 43.7237 157.753 42.4066C157.488 41.7334 156.343 39.6552 155.344 39.0991C154.521 38.6601 153.346 37.5771 155.314 37.5478C157.165 37.5185 158.487 39.2454 158.928 39.9479C161.043 43.4895 164.421 42.4944 165.772 41.8797C165.977 40.3577 166.594 39.3333 167.27 38.7479C162.041 38.1625 156.578 36.1429 156.578 27.1864C156.578 24.6399 157.488 22.5325 158.986 20.8934C158.751 20.308 157.929 17.9079 159.221 14.6882C159.221 14.6882 161.189 14.0736 165.684 17.0883C167.564 16.5615 169.561 16.2981 171.559 16.2981C173.556 16.2981 175.554 16.5615 177.434 17.0883C181.928 14.0443 183.896 14.6882 183.896 14.6882C185.189 17.9079 184.366 20.308 184.131 20.8934C185.629 22.5325 186.54 24.6106 186.54 27.1864C186.54 36.1721 181.047 38.1625 175.818 38.7479C176.67 39.4796 177.404 40.8845 177.404 43.0798C177.404 46.2116 177.375 48.7288 177.375 49.5191C177.375 50.1337 177.816 50.8655 178.991 50.6313C183.656 49.0619 187.709 46.0744 190.581 42.0892C193.453 38.104 194.999 33.3218 195 28.4157C195 15.4785 184.484 5 171.5 5Z" fill="black"/>
<g clip-path="url(#clip0)">
<path d="M96.9001 20.7752C98.4935 22.3717 99.5295 24.4395 99.8542 26.6713L108.787 26.6729C109.091 24.4392 110.121 22.3677 111.718 20.7779C113.383 19.1047 115.564 18.043 117.908 17.7647C120.253 17.4865 122.622 18.008 124.634 19.2448C126.645 20.4816 128.18 22.3612 128.99 24.5789C129.799 26.7967 129.837 29.2227 129.095 31.4637C128.354 33.7047 126.878 35.6295 124.905 36.926C122.933 38.2226 120.58 38.815 118.229 38.6072C115.877 38.3994 113.664 37.4036 111.949 35.7811C110.233 34.1587 109.116 32.0047 108.777 29.6683L99.8547 29.6773C99.5172 32.013 98.401 34.166 96.6869 35.7877C94.9728 37.4094 92.7613 38.4047 90.4104 38.6125C88.0596 38.8202 85.7072 38.2282 83.7342 36.9324C81.7613 35.6365 80.2833 33.7127 79.5398 31.4726C78.7963 29.2324 78.8307 26.8071 79.6375 24.5895C80.4444 22.3719 81.9763 20.4919 83.9852 19.254C85.9941 18.0161 88.3624 17.4929 90.7064 17.7689C93.0503 18.045 95.2327 19.1043 96.9001 20.7752ZM124.422 33.4815C125.468 32.435 126.181 31.1015 126.47 29.6498C126.758 28.198 126.61 26.6931 126.043 25.3254C125.476 23.9577 124.517 22.7887 123.286 21.9661C122.055 21.1434 120.608 20.7042 119.127 20.704C117.647 20.7037 116.2 21.1424 114.97 21.9646C113.739 22.7867 112.78 23.9555 112.214 25.3229C111.647 26.6904 111.499 28.1953 111.788 29.6471C112.078 31.099 112.791 32.4327 113.837 33.4796C115.241 34.8834 117.145 35.6723 119.13 35.6727C121.115 35.673 123.019 34.8848 124.422 33.4815Z" fill="black"/>
</g>
<defs>
<clipPath id="clip0">
<rect width="57" height="57" fill="white" transform="translate(75)"/>
</clipPath>
</defs>
</svg>
